<?xml version="1.0" encoding="utf-8"?>
<!-- Generator: Adobe Illustrator 24.0.2, SVG Export Plug-In . SVG Version: 6.00 Build 0)  -->
<svg version="1.1" id="Layer_1" xmlns="http://www.w3.org/2000/svg" xmlns:xlink="http://www.w3.org/1999/xlink" x="0px" y="0px"
	 viewBox="0 0 232.8 59.7" style="enable-background:new 0 0 232.8 59.7;" xml:space="preserve">
<title>Vibemap_LogoExport_V1</title>
<path d="M6.3,7.6h9l9.4,28.9L34,7.6h9L29.6,44.3h-10L6.3,7.6z M44.6,9.8c0-2.6,2-4.5,4.6-4.5c2.7,0,4.7,1.9,4.7,4.5
	c0,2.7-2,4.5-4.7,4.5C46.6,14.4,44.6,12.5,44.6,9.8z M45.3,17.9h7.7v26.4h-7.7L45.3,17.9z M64.9,39.7l-1.2,4.7h-6.5V6.1H65v16.6
	c2-3.6,5.1-5.5,9-5.5c7,0,11.9,5.7,11.9,14s-5,14-12,14C70,45.2,66.9,43.2,64.9,39.7L64.9,39.7z M78.3,31.1c0-4.2-2.8-7.4-6.8-7.4
	s-6.8,3.2-6.8,7.4s2.9,7.4,6.8,7.4C75.4,38.6,78.3,35.4,78.3,31.1L78.3,31.1z M115.6,31c0,0.8,0,1.5-0.1,2.3H95.8
	c0.5,3.7,3.9,6.1,8.2,6.1c3.4,0,6.3-1.5,7.6-3.5l4.6,3.3c-2,3.6-7.2,5.9-13,5.9c-8.9,0-15.5-5.9-15.5-14.2c0-8.3,5.9-13.8,14.2-13.8
	S115.6,22.7,115.6,31L115.6,31z M95.8,28.7h12c-0.4-3.3-2.6-5.8-5.8-5.8C98.7,22.8,96.4,25.2,95.8,28.7L95.8,28.7z M118.9,17.9h6.2
	l1.2,4.2c1.7-3.5,4.5-5.1,7.9-5.1c4.1,0,7.5,2.1,8.8,5.7c1.4-3.7,4.8-5.6,8.7-5.6c5.7,0,9.9,4.2,9.9,10.6v16.6h-7.7V29.3
	c0-3.1-2-5.5-4.9-5.6c-2.9,0-5,2.3-5,5.6v15.1h-7.7V29.3c0-3.4-1.9-5.6-4.7-5.6c-3,0-4.9,2.2-4.9,5.6v15.1h-7.8L118.9,17.9z
	 M164.2,37.4c0-4.5,3.9-7.9,11.5-8.7l5.3-0.6c1.3-0.2,2.2-0.9,2.2-2.1c0-1.8-2.3-3.2-5-3.2c-3.3,0-5.7,2.2-6,4.4l-7.2-1.9
	c0.5-4.6,6.1-8.3,13.2-8.3c7.5,0,12.7,4.2,12.7,10.3v10.5c0,1.1,0.5,1.8,1.2,1.8c0.6,0,1.4-0.5,1.9-1.2l2.1,4.2
	c-1.5,1.6-4.3,2.5-6.7,2.5c-3.2,0-5.7-2-6-4.5l-0.1-0.5c-1.8,3-5.2,5-9.4,5C168.2,45.2,164.2,42,164.2,37.4L164.2,37.4z M183,33.7
	v-1.1l-5.5,0.6c-4.1,0.4-5.6,1.9-5.6,3.5c0,1.8,2,3,4.7,3C180.4,39.7,183,37.1,183,33.7L183,33.7z M197.5,17.9h6.5l1.2,4.7
	c1.9-3.6,5.1-5.5,9.1-5.5c7,0,12,5.7,12,14s-5,14-11.9,14c-4,0-7.1-1.9-9-5.5v16.6h-7.8L197.5,17.9z M218.5,31.1
	c0-4.2-2.9-7.4-6.8-7.4c-3.9,0-6.8,3.2-6.8,7.4s2.9,7.4,6.8,7.4C215.7,38.5,218.5,35.3,218.5,31.1L218.5,31.1z"/>
</svg>
