<svg height='100px' width='100px'  fill="#000000" xmlns="http://www.w3.org/2000/svg" xmlns:xlink="http://www.w3.org/1999/xlink" version="1.1" x="0px" y="0px" viewBox="0 0 24 24" style="enable-background:new 0 0 24 24;" xml:space="preserve"><g><path d="M4.5,5h-4L0,4.5v-4L0.5,0h4L5,0.5v4L4.5,5z M1,4h3V1H1V4z"></path><path d="M23.5,5h-4L19,4.5v-4L19.5,0h4L24,0.5v4L23.5,5z M20,4h3V1h-3V4z"></path><path d="M4.5,24h-4L0,23.5v-4L0.5,19h4L5,19.5v4L4.5,24z M1,23h3v-3H1V23z"></path><path d="M23.5,24h-4L19,23.5v-4l0.5-0.5h4l0.5,0.5v4L23.5,24z M20,23h3v-3h-3V23z"></path><rect x="2" y="6" width="1" height="12"></rect><rect x="21" y="6" width="1" height="12"></rect><rect x="6" y="21" width="12" height="1"></rect><rect x="6" y="2" width="12" height="1"></rect></g></svg>