<?xml version="1.0" encoding="utf-8"?>
<!-- Generator: Adobe Illustrator 24.0.2, SVG Export Plug-In . SVG Version: 6.00 Build 0)  -->
<svg version="1.1" id="Layer_1" xmlns="http://www.w3.org/2000/svg" xmlns:xlink="http://www.w3.org/1999/xlink" x="0px" y="0px"
	 viewBox="0 0 30.5 31.2" style="enable-background:new 0 0 30.5 31.2;" xml:space="preserve">
<style type="text/css">
	.st0{fill:#FFFFFF;stroke:#636060;stroke-miterlimit:10;}
	.st1{fill:#0099D8;}
</style>
<g>
	<g>
		<path class="st0" d="M29.6,26.1c0,1.9-1.2,3.5-2.6,3.5H3.3c-1.4,0-2.6-1.6-2.6-3.5V5.3c0-1.9,1.2-3.5,2.6-3.5H27
			c1.4,0,2.6,1.6,2.6,3.5L29.6,26.1L29.6,26.1z"/>
		<path class="st1" d="M22.4,12.9c0,0,0,0.4,0,0.6c-0.8-0.5-1.8-0.7-3-0.7h-0.1c-0.6,0-2.7,0.1-4.1,1.3c1,0.8,1.7,2,1.7,3.6
			c0,1.7-0.7,2.8-1.7,3.5c0.3,0.3,0.7,0.5,1.1,0.7c1.2,0.6,2.6,0.7,3.1,0.7c0.9,0,1.6-0.1,3.1-0.8c0,0.2,0,0.5,0,0.5h3.8v-9.4H22.4z
			 M19.7,20.2c-1.5,0-2.6-1.2-2.6-2.7c0-1.5,1.2-2.7,2.6-2.7c1.5,0,2.6,1.2,2.6,2.7C22.4,19.1,21.2,20.2,19.7,20.2z"/>
		<path d="M11.1,12.7c-2.4,0-3.1,0.6-3.4,0.8c0-0.8,0-4.6,0-4.6H3.9v13.3h3.6v-0.6c1.2,0.7,2.6,0.8,3.5,0.8c1.4,0,5.9-0.6,5.9-4.7
			C16.9,14.3,14.1,12.7,11.1,12.7z M11.1,20.2c-1.5,0-2.7-1.2-2.7-2.7c0-1.5,1.2-2.7,2.7-2.7c1.5,0,2.7,1.2,2.7,2.7
			C13.7,19.1,12.6,20.2,11.1,20.2z"/>
	</g>
</g>
</svg>
