<svg height='100px' width='100px'  fill="#000000" xmlns="http://www.w3.org/2000/svg" xmlns:xlink="http://www.w3.org/1999/xlink" version="1.1" x="0px" y="0px" viewBox="0 0 100 100" style="enable-background:new 0 0 100 100;" xml:space="preserve"><g><path d="M91.3,36c0-1.1-0.6-2.1-1.6-2.6L51.4,12.4c-0.9-0.5-2-0.5-2.9,0L10.2,33.4c-1,0.5-1.6,1.5-1.6,2.6s0.6,2.1,1.6,2.6l8,4.4   l-8,4.4c-1,0.5-1.6,1.5-1.6,2.6s0.6,2.1,1.6,2.6l8,4.4l-8,4.4c-1,0.5-1.6,1.5-1.6,2.6s0.6,2.1,1.6,2.6l38.3,20.9   c0.4,0.2,0.9,0.4,1.4,0.4s1-0.1,1.4-0.4l38.3-20.9c1-0.5,1.6-1.5,1.6-2.6s-0.6-2.1-1.6-2.6l-8-4.4l8-4.4c1-0.5,1.6-1.5,1.6-2.6   s-0.6-2.1-1.6-2.6l-8-4.4l8-4.4C90.7,38.1,91.3,37.1,91.3,36z M82.1,64L50,81.5L17.9,64l6.6-3.6l24.1,13.1c0.4,0.2,0.9,0.4,1.4,0.4   s1-0.1,1.4-0.4l24.1-13.1L82.1,64z M82.1,50L50,67.5L17.9,50l6.6-3.6l24.1,13.1c0.4,0.2,0.9,0.4,1.4,0.4s1-0.1,1.4-0.4l24.1-13.1   L82.1,50z M50,53.5L17.9,36L50,18.5L82.1,36L50,53.5z"></path></g></svg>