<svg height='100px' width='100px'  fill="#000000" xmlns:dc="http://purl.org/dc/elements/1.1/" xmlns:cc="http://creativecommons.org/ns#" xmlns:rdf="http://www.w3.org/1999/02/22-rdf-syntax-ns#" xmlns:svg="http://www.w3.org/2000/svg" xmlns="http://www.w3.org/2000/svg" xmlns:sodipodi="http://sodipodi.sourceforge.net/DTD/sodipodi-0.dtd" xmlns:inkscape="http://www.inkscape.org/namespaces/inkscape" version="1.1" x="0px" y="0px" viewBox="0 0 100 100"><g transform="translate(0,-952.36218)"><path style="text-indent:0;text-transform:none;direction:ltr;block-progression:tb;baseline-shift:baseline;color:#000000;enable-background:accumulate;" d="m 73.3694,958.74672 a 2.000005,2.000005 0 0 0 -1.9997,1.99969 l 0,17.73937 -45.4485,45.03212 -17.9215,0 A 2.000005,2.000005 0 0 0 6,1025.5176 l 0,18.46 a 2.000005,2.000005 0 0 0 1.9997,2 l 18.6203,0 a 2.000005,2.000005 0 0 0 2,-2 l 0,-17.5037 45.6966,-45.2778 17.6834,0 a 2.000005,2.000005 0 0 0 2,-1.99969 l 0,-18.45 a 2.000005,2.000005 0 0 0 -2,-1.99969 l -18.6306,0 z m 2,3.99938 14.6309,0 0,14.45062 -14.6309,0 0,-14.45062 z m -65.37,64.7715 14.6209,0 0,14.4603 -14.6209,0 0,-14.4603 z" fill="#000000" fill-opacity="1" fill-rule="evenodd" stroke="none" marker="none" visibility="visible" display="inline" overflow="visible"></path></g></svg>