<svg width="21" height="21" viewBox="0 0 21 21" fill="none" xmlns="http://www.w3.org/2000/svg">
<path d="M20 10.5C20 5.25329 15.7467 1 10.5 1C5.25329 1 1 5.25329 1 10.5C1 15.7467 5.25329 20 10.5 20C15.7467 20 20 15.7467 20 10.5Z" fill="#2C4C45"/>
<path d="M17 8.75C17.0113 8.0637 16.6202 7.4341 16 7.14C15.9475 6.4906 15.4014 5.9926 14.75 6C14.6512 6.0079 14.5538 6.0281 14.46 6.06C14.3993 5.4 13.8151 4.9142 13.1552 4.9749C12.8965 4.9987 12.6526 5.1058 12.46 5.28C12.46 4.5896 11.9004 4.03 11.21 4.03C10.5196 4.03 9.96002 4.5896 9.96002 5.28C9.96002 5.28 10 5.3 10 5.33C9.48862 4.8913 8.71842 4.9503 8.27972 5.4618C8.13162 5.6345 8.03472 5.8451 8.00002 6.07C7.84172 6.0195 7.67612 5.9959 7.51002 6C6.68162 5.9931 6.00442 6.659 5.99752 7.4874C5.99582 7.6872 6.03412 7.8852 6.11002 8.07C5.31752 8.2915 4.85462 9.1136 5.07612 9.9061C5.21632 10.4078 5.60832 10.7998 6.11002 10.94C6.36332 11.7229 7.20342 12.1523 7.98632 11.899C8.52162 11.7258 8.91372 11.2659 9.00002 10.71C9.18302 10.8691 9.40932 10.9701 9.65002 11V16L8.00002 17H13L11.4 16V14C12.1381 13.1085 13.0915 12.4201 14.17 12C14.9712 12.1879 15.773 11.6908 15.9609 10.8897C15.9893 10.7686 16.0025 10.6444 16 10.52C16.0029 10.4667 16.0029 10.4133 16 10.36C16.6202 10.0659 17.0113 9.4363 17 8.75ZM11.4 13.26V9.82C11.6703 10.3007 12.1785 10.5987 12.73 10.6H13.01C13.0256 11.0391 13.2342 11.449 13.58 11.72C12.7643 12.094 12.0251 12.6162 11.4 13.26Z" fill="white"/>
</svg>
