<?xml version="1.0" encoding="utf-8"?>
<!-- Generator: Adobe Illustrator 24.0.2, SVG Export Plug-In . SVG Version: 6.00 Build 0)  -->
<svg version="1.1" id="Layer_1" xmlns="http://www.w3.org/2000/svg" xmlns:xlink="http://www.w3.org/1999/xlink" x="0px" y="0px"
	 viewBox="0 0 21 21" style="enable-background:new 0 0 21 21;" xml:space="preserve">
<style type="text/css">
	.st0{fill:#FFFFFF;stroke:#444444;stroke-miterlimit:10;}
	.st1{fill:#D224B6;}
</style>
<path class="st0" d="M19.8,10.5c0-5.2-4.3-9.5-9.5-9.5s-9.5,4.3-9.5,9.5S5.1,20,10.3,20S19.8,15.7,19.8,10.5z"/>
<path class="st1" d="M9.7,5.4L8.3,8.2l-3,0.4C4.7,8.7,4.5,9.4,4.9,9.8l2.2,2.2l-0.5,3c-0.1,0.5,0.5,1,1,0.7l2.8-1.4l2.8,1.4
	c0.5,0.2,1-0.1,1-0.7l-0.5-3l2.2-2.2c0.4-0.4,0.1-1-0.4-1.1l-3-0.4l-1.3-2.8C10.7,4.9,9.9,4.9,9.7,5.4z"/>
</svg>
