<svg width="18" height="16" viewBox="0 0 18 16" fill="none" xmlns="http://www.w3.org/2000/svg">
<path d="M11.2569 7.56565L9.50974 11.1155C9.29881 11.5476 8.68713 11.5333 8.49378 11.094L6.4935 6.58356L5.43888 9.14413H2.13087L8.54651 15.8045C8.79611 16.0652 9.20038 16.0652 9.44997 15.8045L15.8691 9.14413H12.0338L11.2569 7.56565ZM16.6531 1.49813L16.5687 1.40885C14.7583 -0.469617 11.7948 -0.469617 9.9808 1.40885L9 2.43022L8.0192 1.41242C6.20876 -0.469617 3.24174 -0.469617 1.4313 1.41242L1.34693 1.49813C-0.365081 3.2766 -0.438905 6.10859 1.0903 8.00134H4.69009L5.95213 4.92294C6.14196 4.46225 6.78177 4.45154 6.98566 4.90865L9.03164 9.52625L10.7542 6.03002C10.9616 5.60862 11.5522 5.60862 11.7596 6.03002L12.7299 8.00134H16.9097C18.4389 6.10859 18.3651 3.2766 16.6531 1.49813Z" fill="#27AE6D"/>
</svg>
