<svg version="1.1" id="Capa_1" xmlns="http://www.w3.org/2000/svg" x="0px" y="0px" viewBox="0 0 34 34" style="enable-background:new 0 0 34 34" xml:space="preserve">
<style>.st0{fill:#007361}</style><g transform="matrix(0.358749 0 0 0.358749 164.16 164.16)"><g><g><g><g>
<path class="st0" fill="#007361" d="M-408.3-389.2c-9.4,0-17.2-7.4-18.4-17h-21.1v26.7h79v-26.7H-390C-391.1-396.6-398.9-389.2-408.3-389.2z"/>
<path class="st0" fill="#007361" d="M-386.4-432.9l-6.9-9.7h-30.1l-6.9,9.7h-17.5v21.9h21.1c1.1-9.6,8.9-17,18.4-17c9.4,0,17.2,7.4,18.4,17 h21.1v-21.9H-386.4z M-378.2-418.3h-9.3v-4.9h9.3V-418.3z"/>
<path class="st0" fill="#007361" d="M-408.3-394c7.7,0,13.9-6.5,13.9-14.6c0-8-6.2-14.6-13.9-14.6c-7.7,0-13.9,6.5-13.9,14.6 C-422.2-400.6-416-394-408.3-394z M-408.3-418.3c5.1,0,9.3,4.4,9.3,9.7s-4.2,9.7-9.3,9.7c-5.1,0-9.3-4.4-9.3-9.7 S-413.4-418.3-408.3-418.3z"/></g></g></g></g></g></svg>